<svg xmlns="http://www.w3.org/2000/svg" version="1.1" xmlns:xlink="http://www.w3.org/1999/xlink" xmlns:svgjs="http://svgjs.com/svgjs" width="2140" height="200" preserveAspectRatio="none" viewBox="0 0 2140 200"><g mask="url(&quot;#SvgjsMask1016&quot;)" fill="none"><rect width="2140" height="200" x="0" y="0" fill="rgba(14, 42, 71, 1)"></rect><path d="M 0,46 C 107,55.6 321,96.6 535,94 C 749,91.4 856,38.4 1070,33 C 1284,27.6 1391,64.8 1605,67 C 1819,69.2 2033,48.6 2140,44L2140 200L0 200z" fill="#184a7e"></path><path d="M 0,138 C 142.8,146.2 428.4,182.8 714,179 C 999.6,175.2 1142.8,118.2 1428,119 C 1713.2,119.8 1997.6,170.2 2140,183L2140 200L0 200z" fill="#2264ab"></path></g><defs><mask id="SvgjsMask1016"><rect width="2140" height="200" fill="#ffffff"></rect></mask></defs></svg>